<svg xmlns="http://www.w3.org/2000/svg" width="273.282" height="105" viewBox="0 0 273.282 105"><defs><style>.a{fill:#fff;}.b{fill:#ffbb01;}.c{fill:#ff9001;}.d{fill:#4800a2;}.e{fill:#2e0070;}.f{fill:#7bd9db;}.g{fill:#51aed1;}.h{fill:#e35165;}.i{fill:#bf3954;}</style></defs><path class="a" d="M273.2,66.443q-4.783-.223-9.9-.527c-33.227-1.956-83.092-6.982-131.63-19.78C84.818,33.784,40.526,14.48,10.725,0H5.81l.851.415C25.671,9.758,44.782,18.24,63.478,25.657a601.972,601.972,0,0,0,67.669,22.5,605.522,605.522,0,0,0,70.041,13.781c19.952,2.777,40.816,4.813,62.025,6.08q5.158.3,9.991.527Z" transform="translate(0.077)"/><path class="b" d="M146.929,48.794l-28.95-7.144L108.19,81.332l17.49-8.664L137.14,88.475Z" transform="translate(1.441 0.555)"/><rect class="c" width="3.851" height="32.558" transform="translate(117.352 45.661) rotate(-76.14)"/><path class="d" d="M252.2,63.453l-29.71-2.543-3.476,40.725,15.919-11.278,13.791,13.832Z" transform="translate(2.917 0.811)"/><rect class="e" width="3.851" height="32.558" transform="matrix(0.085, -0.996, 0.996, 0.085, 223.878, 65.466)"/><path class="f" d="M199.682,58.132,170.235,53.41,163.78,93.77,180.49,83.7l12.727,14.794Z" transform="translate(2.181 0.711)"/><rect class="g" width="3.851" height="32.558" transform="translate(170.629 57.742) rotate(-80.91)"/><path class="h" d="M94.975,33.7,67.048,23.24,52.71,61.513l18.382-6.566L80.637,71.97Z" transform="translate(0.702 0.31)"/><rect class="i" width="3.851" height="32.558" transform="translate(65.288 26.74) rotate(-69.46)"/><path class="d" d="M44.059,14.272,16.892,1.96,0,39.179l18.787-5.31,8.37,17.622Z" transform="translate(0 0.026)"/><rect class="e" width="3.851" height="32.558" transform="translate(14.233 5.009) rotate(-65.58)"/></svg>