<svg xmlns="http://www.w3.org/2000/svg" width="273.282" height="105" viewBox="0 0 273.282 105"><defs><style>.a{fill:#fff;}.b{fill:#4800a2;}.c{fill:#2e0070;}.d{fill:#ffbb01;}.e{fill:#ff9001;}.f{fill:#e35165;}.g{fill:#bf3954;}.h{fill:#7bd9db;}.i{fill:#51aed1;}</style></defs><path class="a" d="M0,66.443q4.783-.223,9.9-.527c33.237-1.956,83.092-6.982,131.63-19.78C188.386,33.784,232.648,14.5,262.449,0h4.945l-.841.415c-19.01,9.343-38.131,17.824-56.8,25.242a602.086,602.086,0,0,1-67.679,22.5,605.1,605.1,0,0,1-70.04,13.781c-19.942,2.777-40.817,4.813-62.015,6.08q-5.168.3-10,.527Z"/><path class="b" d="M123.27,48.794l28.95-7.144,9.8,39.682-17.5-8.664L133.069,88.475Z" transform="translate(1.642 0.555)"/><rect class="c" width="32.558" height="3.851" transform="translate(123.404 49.718) rotate(-13.86)"/><path class="d" d="M17.94,63.453,47.65,60.91l3.476,40.725L35.2,90.357,21.416,104.189Z" transform="translate(0.239 0.811)"/><rect class="e" width="32.558" height="3.851" transform="matrix(0.996, -0.085, 0.085, 0.996, 16.628, 64.387)"/><path class="f" d="M70.48,58.132,99.927,53.41l6.465,40.36L89.672,83.7,76.945,98.493Z" transform="translate(0.939 0.711)"/><rect class="g" width="32.558" height="3.851" transform="translate(69.889 59.094) rotate(-9.09)"/><path class="h" d="M175.27,33.7,203.2,23.24l14.349,38.273-18.392-6.566L189.619,71.97Z" transform="translate(2.334 0.31)"/><rect class="i" width="32.558" height="3.851" transform="translate(176.15 34.555) rotate(-20.54)"/><path class="d" d="M226.22,14.272,253.377,1.96l16.892,37.219-18.787-5.31-8.37,17.622Z" transform="translate(3.013 0.026)"/><rect class="e" width="32.558" height="3.851" transform="translate(227.817 14.966) rotate(-24.41)"/></svg>