<svg xmlns="http://www.w3.org/2000/svg" xmlns:xlink="http://www.w3.org/1999/xlink" width="266.064" height="199.141" viewBox="0 0 266.064 199.141"><defs><style>.a{fill:#e1e2ff;}.a,.b,.c,.d,.e,.f,.g,.h,.i,.j,.k,.l,.m,.n,.o{fill-rule:evenodd;}.b{fill:#8d84fb;}.c{fill:#efedf8;}.d{fill:#796fe5;}.e,.f,.h{fill:none;}.f,.h{stroke:#fefefe;stroke-linecap:round;stroke-linejoin:round;}.f{stroke-width:0.687px;}.g{fill:#1d125c;}.h{stroke-width:0.765px;}.i{fill:#fbbfce;}.j{fill:#f44a3b;}.k{fill:url(#a);}.l{fill:#f46856;}.m{fill:url(#b);}.n{fill:#f44c3d;}.o{fill:#f2f4fb;}</style><linearGradient id="a" y1="0.5" x2="1" y2="0.5" gradientUnits="objectBoundingBox"><stop offset="0" stop-color="#ffa897"/><stop offset="1" stop-color="#f43d3b"/></linearGradient><linearGradient id="b" x1="0.289" y1="0.293" x2="0.979" y2="0.661" xlink:href="#a"/></defs><g transform="translate(13.037)"><path class="a" d="M17.022,199.65h224.03c13.665-17.909,14.622-45.469,8.512-67.128-3.144-11.148-8.938-21.528-10.919-32.937-2.76-15.9,2.131-32.307-.009-48.3C235.181,25.428,211.954,4.134,185.986.959s-52.727,10.8-66.651,32.879c-5.864,9.3-10.689,20.782-21.077,24.445-13.073,4.61-26.326-5.915-40.026-8.048-12.521-1.95-25.449,3.531-34.484,12.393S9.177,83.359,5.743,95.521C-3.67,128.844-2.089,170.745,17.022,199.65" transform="translate(-0.133 -0.511)"/></g><g transform="translate(47.702 147.47)"><path class="b" d="M177.232.31H31.539a7.774,7.774,0,0,0-6.511,3.522L1.424,40.014A7.74,7.74,0,0,0,7.936,51.981h192.9a7.74,7.74,0,0,0,6.511-11.967l-23.6-36.182A7.772,7.772,0,0,0,177.232.31" transform="translate(-0.168 -0.31)"/></g><path class="c" d="M194.29,112.691,179.576,86.415a6.4,6.4,0,0,0-5.588-3.272H48.9a6.407,6.407,0,0,0-5.542,3.19L28.09,112.651a2.621,2.621,0,0,0,2.266,3.932H192a2.618,2.618,0,0,0,2.294-3.891" transform="translate(35.757 67.893)"/><path class="d" d="M207.3,93.938a3.08,3.08,0,0,1-3,4.065,5.365,5.365,0,0,1-5.111-3.8,3.081,3.081,0,0,1,3-4.067,5.369,5.369,0,0,1,5.112,3.8m20.234,23.773a7.754,7.754,0,0,1-7.766,7.744H26.865a7.754,7.754,0,0,1-7.768-7.744,7.443,7.443,0,0,1,.355-2.294H227.183a7.5,7.5,0,0,1,.353,2.294" transform="translate(28.604 73.684)"/><g transform="translate(177.986 111.265)"><path class="e" d="M.409,73.756H17.316C44.845,44.4,41.041.384,41.041.384-2.218,16.867.407,73.756.407,73.756" transform="translate(-0.376 -0.384)"/></g><g transform="translate(189.08 111.268)"><path class="e" d="M7.637,73.755H.446C24.007,49.11,25.063,14.146,24.8,3.548A57.64,57.64,0,0,1,31.828.386S35.71,44.4,7.637,73.755" transform="translate(-0.446 -0.386)"/></g><g transform="translate(187.315 111.265)"><path class="f" d="M36.816.384S14.433,28.836,5.48,73.756" transform="translate(-5.48 -0.384)"/></g><g transform="translate(206.329 128.543)"><path class="f" d="M15.883,12.423A72.944,72.944,0,0,1,27.789,9.837" transform="translate(-15.883 -9.837)"/></g><g transform="translate(199.933 122.919)"><path class="f" d="M13.408,25.981S11.9,12.426,12.545,6.76" transform="translate(-12.383 -6.76)"/></g><g transform="translate(196.881 150.537)"><path class="f" d="M10.714,23.213A165.077,165.077,0,0,1,27.777,21.87" transform="translate(-10.714 -21.87)"/></g><g transform="translate(187.969 138.859)"><path class="f" d="M10.815,39.6S4.527,25.689,6.087,15.481" transform="translate(-5.838 -15.481)"/></g><g transform="translate(189.72 169.137)"><path class="f" d="M6.8,37.029a149.607,149.607,0,0,1,16.447-4.983" transform="translate(-6.796 -32.046)"/></g><g transform="translate(180.252 161.595)"><path class="f" d="M9.671,46.3S2.219,35.3,1.616,27.92" transform="translate(-1.616 -27.92)"/></g><g transform="translate(192.423 138.366)"><path class="e" d="M.275,46.479H18.029C44.32,31.295,52.185.238,52.185.238q-1.1-.027-2.164-.027C.277.209.275,46.479.275,46.479" transform="translate(-0.275 -0.211)"/></g><g transform="translate(200.961 138.393)"><path class="f" d="M48.318.226S15.286,15.417,4.946,46.466" transform="translate(-4.946 -0.226)"/></g><g transform="translate(227.965 148.569)"><path class="f" d="M19.72,5.957a55.684,55.684,0,0,1,12.427.435" transform="translate(-19.72 -5.793)"/></g><g transform="translate(219.402 141.113)"><path class="f" d="M15.035,16.788S15.51,5.907,18.806,1.714" transform="translate(-15.035 -1.714)"/></g><g transform="translate(211.678 164.571)"><path class="f" d="M10.809,14.833s11.27-1.08,19.1.961" transform="translate(-10.809 -14.548)"/></g><g transform="translate(205.85 150.002)"><path class="f" d="M8.387,28.876s-2.241-12.053.939-22.3" transform="translate(-7.621 -6.577)"/></g><g transform="translate(202.654 178.462)"><path class="f" d="M5.872,23.835a53.153,53.153,0,0,1,16.242-1.614" transform="translate(-5.872 -22.148)"/></g><g transform="translate(203.153 138.367)"><path class="e" d="M41.326.241S33.5,31.3,7.31,46.478H.145C25.3,31.892,33.517,2.676,34.135.384q3.59-.243,7.191-.143" transform="translate(-0.145 -0.212)"/></g><g transform="translate(162.789 96.79)"><path class="e" d="M14.176,5.322c-2.524,3.886-2.937,8.766-3.217,13.425s-.537,9.516-2.85,13.537c-1.875,3.259-5.032,5.854-5.887,9.523-.746,3.18.4,6.37,1.493,9.554.406,1.188.8,2.378,1.1,3.562a11.259,11.259,0,0,1,.174,5.752c-.572,2.15-1.994,3.948-3.018,5.92A17.368,17.368,0,0,0,.7,79.169a19.251,19.251,0,0,0,5.217,9.145h23.52A8.008,8.008,0,0,0,32.16,82.13c-.091-3.718-1.707-7.185-3.235-10.559S25.9,64.634,26.079,60.924a18.777,18.777,0,0,1,1.488-6c.481-1.2,1.018-2.38,1.535-3.564.088-.208.183-.419.267-.627,1.407-3.307,2.539-7.017,1.49-10.459-.892-2.946-3.264-5.224-4.328-8.11-1.256-3.42-.545-7.245.567-10.72s2.6-6.869,2.9-10.5-.885-7.7-3.976-9.545A6.721,6.721,0,0,0,22.542.465a10.546,10.546,0,0,0-8.366,4.857" transform="translate(-0.062 -0.465)"/></g><path class="f" d="M91.255,141.338c3.648-1.713,5.255-6.213,4.937-10.23s-2.139-7.735-3.685-11.457-2.859-7.768-2.1-11.727c.574-3.007,2.307-5.717,2.718-8.75.6-4.427-1.7-8.911-.886-13.3.713-3.859,3.714-7,4.42-10.857.609-3.323-.565-6.677-1.2-10s-.548-7.213,1.934-9.5" transform="translate(87.451 45.017)"/><g transform="translate(182.391 96.798)"><path class="e" d="M13.135,82.894a8.019,8.019,0,0,1-2.795,6.242H4.217a8.026,8.026,0,0,0,2.8-6.242c-.1-3.753-1.755-7.253-3.323-10.656s-3.1-7-2.917-10.748A18.587,18.587,0,0,1,2.3,55.433c.49-1.206,1.044-2.4,1.576-3.6l.272-.632c1.446-3.338,2.6-7.083,1.526-10.556-.912-2.974-3.347-5.273-4.438-8.189C-.052,29.01.677,25.15,1.817,21.642S4.482,14.709,4.8,11.048,3.89,3.276.719,1.415A6.171,6.171,0,0,0,.07,1.077a7.811,7.811,0,0,1,6.772.336c3.171,1.864,4.39,5.962,4.078,9.633s-1.848,7.1-2.979,10.6-1.87,7.368-.581,10.821c1.091,2.914,3.528,5.213,4.44,8.189,1.078,3.473-.082,7.216-1.528,10.554-.088.21-.183.42-.272.632-.53,1.194-1.084,2.389-1.576,3.6A18.632,18.632,0,0,0,6.9,61.492c-.185,3.747,1.356,7.341,2.917,10.746s3.226,6.9,3.321,10.656" transform="translate(-0.07 -0.469)"/></g><path class="g" d="M100.09,121.814s12.1-36.977,37.421-43.794c0,0-23.858,8.909-34.535,43.794Z" transform="translate(95.651 63.652)"/><path class="g" d="M131.881,86.991s14.253-8.766,29.834,2.921c0,0-18.629,5.292-29.834-2.921m-11.488,9.517s11.552-8.253,3.763-26.8a28.36,28.36,0,0,0-3.763,26.8m-20.3,32.19s8.247-25.2,25.5-29.843c0,0-16.257,6.072-23.531,29.841H100.09Z" transform="translate(95.651 56.768)"/><path class="g" d="M119.829,89.883s10.863-3.462,19.254,6.823c0,0-13.19.444-19.252-6.825m-11.036,9.4s5.513-7.951-3.749-18.059a19.319,19.319,0,0,0,3.747,18.059" transform="translate(99.071 66.302)"/><g transform="translate(69.481 111.252)"><path class="e" d="M1.611,12.676l.04.21q.214,1.184.457,2.363c.148.72.3,1.457.462,2.219.068.307.143.621.207.943.082.329.155.663.238,1,.128.548.26,1.109.4,1.678.194.788.395,1.6.616,2.413.155.6.324,1.208.5,1.826.093.336.2.685.294,1.027a126.724,126.724,0,0,0,7.348,19.494,96.317,96.317,0,0,0,21.49,29.731h22.08a119.469,119.469,0,0,0-9.4-33.826C39.479,26.533,27.8,10.368,8.1,2.85,6.818,2.362,5.509,1.911,4.16,1.5c-.336-.1-.671-.2-1.014-.3S2.465,1,2.122.913C1.717.8,1.324.7.91.6.62.521.318.446.013.377a102.893,102.893,0,0,0,1.6,12.3" transform="translate(-0.013 -0.377)"/></g><g transform="translate(69.488 111.259)"><path class="e" d="M43.512,75.577H34.349A96.413,96.413,0,0,1,12.415,45.846,125.649,125.649,0,0,1,4.921,26.352q-.425-1.421-.8-2.855-.332-1.2-.632-2.411c-.144-.567-.28-1.13-.409-1.678-.084-.336-.157-.671-.241-1-.068-.32-.143-.636-.212-.943-.165-.762-.322-1.5-.472-2.219-.1-.494-.2-.965-.289-1.431q-.093-.465-.177-.932c-.016-.075-.029-.143-.044-.212A101.756,101.756,0,0,1,.017.381c.309.068.61.144.91.212q1.146.28,2.281.6,2.56.72,5.054,1.651A133.765,133.765,0,0,0,18.944,41.752C24.225,53.441,32.022,65.629,43.51,75.577" transform="translate(-0.017 -0.381)"/></g><g transform="translate(69.483 111.254)"><g transform="translate(0 0)"><path class="h" d="M.014.378S28.948,28.687,45.53,77.439" transform="translate(-0.014 -0.378)"/></g><g transform="translate(3.038 19.194)"><path class="h" d="M15.195,11.956A80.583,80.583,0,0,0,1.676,10.9" transform="translate(-1.676 -10.879)"/></g><g transform="translate(22.204 10.152)"><path class="h" d="M14.081,27.515s-.356-15.359-1.919-21.583" transform="translate(-12.162 -5.932)"/></g><g transform="translate(11.055 41.976)"><path class="h" d="M25.082,23.343a181.832,181.832,0,0,0-19.02,1.124" transform="translate(-6.062 -23.343)"/></g><g transform="translate(36.074 26.114)"><path class="h" d="M19.75,42.307s4.857-16.491,1.61-27.642" transform="translate(-19.75 -14.665)"/></g><g transform="translate(22.413 62.659)"><path class="h" d="M31.157,37.693a164.561,164.561,0,0,0-18.881-3.034" transform="translate(-12.276 -34.659)"/></g><g transform="translate(43.727 50.263)"><path class="h" d="M23.937,49.621S30.512,36.2,30.075,27.877" transform="translate(-23.937 -27.877)"/></g></g><g transform="translate(42.67 133.442)"><path class="e" d="M.345.548s8.975,34.3,38.969,51.069H59.566s0-51.1-56.754-51.1C2,.517,1.18.528.345.548" transform="translate(-0.345 -0.517)"/></g><g transform="translate(42.672 133.473)"><g transform="translate(0 0)"><path class="h" d="M.346.534S38.03,17.312,49.825,51.6" transform="translate(-0.346 -0.534)"/></g><g transform="translate(4.495 11.238)"><path class="h" d="M16.98,6.864a65.494,65.494,0,0,0-14.175.479" transform="translate(-2.805 -6.682)"/></g><g transform="translate(24.14 3.005)"><path class="h" d="M17.854,18.824s-.545-12.016-4.3-16.646" transform="translate(-13.553 -2.178)"/></g><g transform="translate(15.467 28.91)"><path class="h" d="M30.6,16.666S17.737,15.474,8.808,17.728" transform="translate(-8.808 -16.351)"/></g><g transform="translate(41.956 12.82)"><path class="h" d="M24.371,32.176S26.93,18.864,23.3,7.548" transform="translate(-23.3 -7.548)"/></g><g transform="translate(29.02 44.252)"><path class="h" d="M34.752,26.608a62.523,62.523,0,0,0-18.529-1.782" transform="translate(-16.223 -24.745)"/></g></g><g transform="translate(18.79 6.973)"><g transform="translate(23.809 126.632)"><path class="e" d="M.34.557S9.15,35.3,38.614,52.282h8.061C18.373,35.965,9.124,3.28,8.43.717Q4.392.446.342.557" transform="translate(-0.34 -0.524)"/></g><path class="g" d="M73.065,129.421S56.4,78.159,21.521,68.706c0,0,32.864,12.352,47.571,60.715h3.974Z" transform="translate(11.82 48.969)"/><path class="g" d="M44.373,81.144S24.74,68.989,3.28,85.193c0,0,25.663,7.333,41.095-4.052M60.2,94.337S44.285,82.9,55.016,57.178c0,0,12.853,15.339,5.182,37.159m28.558,44.626s-10.254-31.522-31.7-37.337c0,0,20.208,7.6,29.252,37.337h2.446Z" transform="translate(-3.28 39.426)"/><path class="g" d="M45.132,86.786s-13.5-4.332-23.933,8.538c0,0,16.4.556,23.933-8.538M58.85,98.545S52,88.6,63.511,75.953A24.291,24.291,0,0,1,58.85,98.545m100.062,24.977H130.426c-7.375-6.951-14.193-14.312-14.193-14.312-6,7.569-8.134,10.587-10.888,14.312H77.638c3.6-12.192,8.353-28.062,10.879-36.452.132-.464.263-.9.384-1.3l1.351-4.487A98.518,98.518,0,0,0,108.5,85.767a98.122,98.122,0,0,0,29.1,0,62.775,62.775,0,0,0,9.077-1.98c.077.6.177,1.261.318,1.98.342,1.778.868,3.924,1.526,6.311,2.6,9.36,7.2,22.391,10.386,31.444" transform="translate(11.554 54.968)"/><path class="i" d="M79.466,57.9a7.46,7.46,0,0,1-7.436-7.485V25.042H86.9V50.414A7.46,7.46,0,0,1,79.466,57.9" transform="translate(53.632 12.823)"/><path class="i" d="M78.086,48.577A13.859,13.859,0,0,1,65.365,33.688L66.946,12.5l27.507,2.08L92.873,35.768A13.826,13.826,0,0,1,78.086,48.577" transform="translate(48.082 2.437)"/><path class="i" d="M71.3,21.722a3.665,3.665,0,1,1-3.665-3.69,3.679,3.679,0,0,1,3.665,3.69" transform="translate(46.964 7.02)"/><path class="g" d="M109.639,21.7A13.5,13.5,0,0,0,97.252,7.2L59.311,4.326a11.83,11.83,0,0,0,10.5,14.75l26.7,2.018L94.713,45.313a16.522,16.522,0,0,0-9.254,7.918s-2.564-9.887-14.58-9a19.922,19.922,0,0,0-2.533,7.419,7.973,7.973,0,0,0,12.4,7.662l.2-.143s15.642,2.563,16.69-10.6l.069.005.3-3.99a19.9,19.9,0,0,0,11.159-16.452l.42-5.641c.011-.137.005-.271.011-.406h.02l.029-.389Z" transform="translate(42.8 -4.326)"/><path class="j" d="M38.389,60.143a2.988,2.988,0,0,1-1.983-3.718l9.2-30.744A2.967,2.967,0,1,1,51.288,27.4l-9.2,30.744a2.961,2.961,0,0,1-3.694,1.994" transform="translate(24.036 11.595)"/></g><g transform="translate(44.69 7.238)"><path class="k" d="M.452,45.269c20.121-8.991,42.892-2.915,50.543-.393a4.691,4.691,0,0,0,5.026-1.358A15.794,15.794,0,0,0,59.6,30.387a4.639,4.639,0,0,0-3.621-3.753C16.553,18.126,9.344.471,9.344.471L.45,45.269Z" transform="translate(-0.45 -0.471)"/></g><g transform="translate(35.613 5.289)"><path class="l" d="M31.358,29.377c-2.515,11.78-7.721,20.859-12.248,21.87a3.33,3.33,0,0,1-1.592.026c-4.831-1.109-6.469-12.692-3.665-25.889s9.007-23,13.84-21.894A4.175,4.175,0,0,1,30.1,5.2c2.9,3.866,3.535,13.5,1.261,24.175" transform="translate(-12.484 -3.405)"/><path class="j" d="M30.534,22.575q-.349,3.016-.985,5.988a62.081,62.081,0,0,1-2.808,9.5c-2.687,6.9-6.233,11.656-9.439,12.371-2.44-3.254-3.283-10.612-2.12-19.225l0-.007a1.343,1.343,0,0,1,.029-.188q.313-2.33.828-4.754.559-2.627,1.287-5.05l.037-.13c2.76-9.179,7.09-15.831,10.925-16.69,2.34,3.126,3.208,10.02,2.245,18.187" transform="translate(-10.676 -2.591)"/></g><g transform="translate(82.819 28.421)"><path class="e" d="M5.389,2.239A43.01,43.01,0,0,1,.542,17.47a1.742,1.742,0,0,0,1.12,2.564c2.7.607,7.209,1.682,10.784,2.844a7.028,7.028,0,0,0,7.434-1.937c2.373-2.687,4.518-7.255,2.513-14.379a4.892,4.892,0,0,0-3.524-3.376c-2.6-.662-6.69-1.769-10.154-2.979A2.559,2.559,0,0,0,7.873.06,2.5,2.5,0,0,0,5.387,2.239" transform="translate(-0.311 -0.06)"/></g><g transform="translate(39.275 23.307)"><path class="e" d="M4.122.278A2.067,2.067,0,0,0,2.457,1.335,13.835,13.835,0,0,0,.5,8.557a2.227,2.227,0,0,0,1.243,1.937.1.1,0,0,1,.037.024c.117.049.241.106.375.165l0,.007c3.045,1.433,9.87,4.825,11.658,7.054A64.844,64.844,0,0,0,16.641,7.97c.442-2.1.768-4.169.994-6.16Q11.062,1.127,4.506.279A.8.8,0,0,0,4.353.269a.819.819,0,0,0-.1-.007.567.567,0,0,0-.132.015" transform="translate(-0.487 -0.262)"/></g><path class="g" d="M19.264,19.112c-.589,3.009-2.2,5.165-3.592,4.818s-2.045-3.067-1.455-6.076,2.2-5.165,3.593-4.818,2.045,3.067,1.455,6.076" transform="translate(24.384 9.828)"/><g transform="translate(11.332 0.028)"><path class="e" d="M5.53.526.2,5.967l14.038,11.08L15.9,15.212Z" transform="translate(-0.2 -0.526)"/></g><g transform="translate(0 17.569)"><path class="e" d="M0,6.572,22.981,8.734l.567-3.676L1.024.123Z" transform="translate(0 -0.123)"/></g><g transform="translate(4.145 32.901)"><path class="e" d="M.268,7.077,3.01,11.971l16.3-8.183L17.705.511Z" transform="translate(-0.268 -0.511)"/></g><g transform="translate(74.099 55.855)"><path class="i" d="M43.94,57.42a67.423,67.423,0,0,1,2.778-6.831,6.846,6.846,0,0,0,4.56-3.8,23.961,23.961,0,0,0,1.95-6.313l.7-3.332a9.238,9.238,0,0,0,.183-4.546,1.686,1.686,0,0,0-3.175-.631c-1.917,2.259-1.545,5.935-3.54,8.125a7.456,7.456,0,0,1-4.3,2.012,27.553,27.553,0,0,0-4.723.936l-.046.018A5.309,5.309,0,0,0,35,48.018a15.941,15.941,0,0,0,1.965,8.554,1.944,1.944,0,0,0,1.824.939,24.341,24.341,0,0,0,3.617.015C43,57.4,43.739,58,43.94,57.42" transform="translate(-32.332 -31.069)"/><path class="i" d="M35.82,32.327c1.316-.983,3.3-1.066,4.831-1.162a12.511,12.511,0,0,1,6.768,1.482c1.788.983,3.455,2.656,3.524,4.732a7.906,7.906,0,0,1-.417,2.4l-.466,1.66a12.18,12.18,0,0,1-1.078,2.875,7.061,7.061,0,0,1-4.557,3.2,10.906,10.906,0,0,1-5.608-.367,7.887,7.887,0,0,1-3.941-2.435c-1.961-2.482-1.358-6.169-.735-9.039a7.857,7.857,0,0,1,.817-2.4,3.333,3.333,0,0,1,.859-.95" transform="translate(-33.539 -31.012)"/></g><g transform="translate(75.918 70.554)"><path class="m" d="M69.237.111s-6.571,3.8-13.511,16.028c-9.039,4.323-21.5,9.821-32.069,12.818a9.3,9.3,0,0,1-11.848-8.289,81.041,81.041,0,0,1-.022-9.057,5.131,5.131,0,0,0-7.086-5l-.183.082a5.107,5.107,0,0,0-2.833,3.721A82.3,82.3,0,0,0,.575,20.051,24.962,24.962,0,0,0,25.77,46.274a126.37,126.37,0,0,0,19.216-1.581q-.544,2.253-1.014,4.522a198.58,198.58,0,0,0-3.55,26.14s17.907,28.335,66.015,7.487c0,0-5.22-64.672-22.171-82.731H69.237Z" transform="translate(-0.535 -0.111)"/></g><path class="n" d="M85.417,60S75.456,68.956,58,70.967c.342-1.614.7-3.162,1.075-4.672v-.007S75.891,63.374,85.417,60" transform="translate(60.808 48.735)"/><g transform="translate(208.59 78.247)"><path class="e" d="M.12,9.989A9.669,9.669,0,1,0,9.789.32,9.669,9.669,0,0,0,.12,9.989" transform="translate(-0.12 -0.32)"/></g><path class="a" d="M112.99,56.007A2.148,2.148,0,0,1,111,53.746v-.632h1.738v.727c0,.589.369.837.954.837s.95-.249.95-.865c0-.685-.333-1.179-1.572-1.974-1.5-.972-2.02-1.742-2.02-2.782a2.126,2.126,0,0,1,1.937-2.223V46h1.506v.835a2.133,2.133,0,0,1,1.972,2.248v.274h-1.74v-.369c0-.59-.333-.85-.918-.85s-.921.26-.921.823c0,.631.334,1.109,1.572,1.919,1.506.987,2.023,1.74,2.023,2.837a2.168,2.168,0,0,1-1.989,2.29v.96h-1.5Z" transform="translate(104.682 37.146)"/><g transform="translate(212.089 50.53)"><path class="e" d="M.034,8.924A8.768,8.768,0,1,0,8.8.156,8.768,8.768,0,0,0,.034,8.924" transform="translate(-0.034 -0.156)"/></g><path class="o" d="M112,40.967V30l7.311,5.4Z" transform="translate(105.51 23.901)"/><g transform="translate(177.633 57.966)"><path class="e" d="M.183,12.81A12.586,12.586,0,1,0,12.769.224,12.586,12.586,0,0,0,.183,12.81" transform="translate(-0.183 -0.224)"/></g><path class="o" d="M103.837,35a4.453,4.453,0,0,0-3.526,2.12A4.455,4.455,0,0,0,96.786,35c-2.235-.009-3.915,2.248-3.778,4.741.353,6.381,7.3,9.881,7.3,9.881s6.951-3.5,7.3-9.881c.137-2.495-1.543-4.75-3.778-4.741" transform="translate(89.781 28.04)"/></svg>