<svg xmlns="http://www.w3.org/2000/svg" width="373.464" height="310.392" viewBox="0 0 373.464 310.392"><defs><style>.a{fill:#e35165;}.b{fill:#ffbb01;}.c{fill:#4800a2;}.d{fill:#7bd9db;}.e{fill:#51aed1;}</style></defs><g transform="translate(0)"><rect class="a" width="5.906" height="17.717" transform="translate(3.303 146.116) rotate(-124.007)"/><rect class="a" width="7.522" height="22.565" transform="translate(128.951 291.707) rotate(-34.1)"/><rect class="b" width="7.135" height="21.404" transform="translate(35.708 78.71) rotate(-102.43)"/><rect class="a" width="7.134" height="21.389" transform="translate(253.001 184.541) rotate(155.35)"/><rect class="c" width="4.781" height="14.358" transform="translate(225.649 14.825) rotate(-150)"/><rect class="d" width="7.135" height="21.404" transform="translate(352.562 39.332) rotate(-102.43)"/><rect class="d" width="7.135" height="21.389" transform="matrix(-0.76, -0.65, 0.65, -0.76, 177.67, 229.709)"/><rect class="d" width="4.781" height="14.358" transform="translate(142.533 14.833) rotate(-150)"/><rect class="b" width="4.781" height="14.358" transform="translate(286.496 67.111) rotate(-56.1)"/><rect class="b" width="4.781" height="14.358" transform="translate(101.849 117.223) rotate(-68.48)"/><rect class="c" width="4.781" height="14.358" transform="translate(59.756 193.467) rotate(-68.48)"/><rect class="b" width="4.781" height="14.358" transform="translate(10.196 248.333) rotate(-68.48)"/><path class="d" d="M107.711,63.085a10.56,10.56,0,0,1,.968-3.351c2.577-5.571,9.86-10.635,17.784-11.916a19.214,19.214,0,0,1,11.424,1.951h0a14.411,14.411,0,0,0,.283-1.7,9.473,9.473,0,0,0-1.579-7.194,7.134,7.134,0,0,0-4.468-2.294h0l.194-2.86.164-3.083a12.988,12.988,0,0,1,8.624,4.319c2.5,2.979,3.53,6.852,2.979,11.737a19.363,19.363,0,0,1-1.058,4.632,20.5,20.5,0,0,1,1.609,1.609c5.854,6.434,7.581,15.744,4.871,26.185-3.232,12.437.462,21.791,5.288,25.217,3.426,2.428,7.626,2.219,11.916-.6l3.336,4.99a22.773,22.773,0,0,1-3.366,1.847,15.1,15.1,0,0,1-15.312-1.355c-7.984-5.69-7.939-20.108-4.468-33.334,2.8-10.784-1.043-18.782-6.613-18.916a32.351,32.351,0,0,1-9.786,9.473c-5.958,3.753-12.154,4.871-16.935,3.1C109.513,70.055,107.339,66.883,107.711,63.085Zm9.443,3.217A16.235,16.235,0,0,0,127.3,63.323a26.378,26.378,0,0,0,8.222-8.043A13.673,13.673,0,0,0,127.4,53.79c-7.775,1.236-13.405,6.792-13.718,9.935,0,.462-.149,1.489,1.951,2.234a7.357,7.357,0,0,0,1.311.343Z" transform="translate(43.044 15.978)"/><path class="e" d="M137.527,61.354a7.357,7.357,0,0,1-1.311-.343c-2.1-.775-2-1.772-1.951-2.234.313-3.143,5.958-8.7,13.718-9.935a13.673,13.673,0,0,1,8.118,1.489,13.613,13.613,0,0,0,2.368-5.511h0a19.214,19.214,0,0,0-11.424-1.951c-7.924,1.251-15.207,6.315-17.784,11.916C129.364,59.894,136.216,61.16,137.527,61.354Z" transform="translate(22.463 20.897)"/></g></svg>