<svg xmlns="http://www.w3.org/2000/svg" width="325.65" height="310.5" viewBox="0 0 325.65 310.5"><defs><style>.a{fill:#e35165;}.b{fill:#7bd9db;}.c{fill:#4800a2;}.d{fill:#ffbb01;}.e{fill:#ab1f40;}</style></defs><g transform="translate(0 0)"><rect class="a" width="7.536" height="22.609" transform="translate(78.379 126.97) rotate(-85.52)"/><rect class="b" width="7.148" height="21.445" transform="translate(303.815 105.671) rotate(-39.51)"/><rect class="b" width="5.596" height="16.804" transform="translate(0 37.818) rotate(-39.51)"/><rect class="c" width="4.79" height="14.386" transform="translate(154.144 73.469) rotate(-32.31)"/><rect class="a" width="5.91" height="17.729" transform="translate(101.295 33.479) rotate(-124.09)"/><rect class="d" width="4.79" height="14.386" transform="translate(176.168 4.456) rotate(-68.48)"/><rect class="d" width="4.79" height="14.386" transform="translate(208.999 137.713) rotate(30)"/><rect class="d" width="4.79" height="14.386" transform="translate(113.653 187.672) rotate(-68.48)"/><rect class="d" width="4.79" height="14.386" transform="translate(320.895 227.978) rotate(-160.7)"/><rect class="c" width="4.79" height="14.386" transform="translate(232.953 93.03) rotate(-99.74)"/><rect class="b" width="6.477" height="19.445" transform="matrix(-0.65, 0.76, -0.76, -0.65, 202.934, 305.579)"/><path class="a" d="M106.76,157.461c-5.089.343-10.7-2.522-15.371-7.82A32.562,32.562,0,0,1,84.718,137.7c-5.387-1.492-11.372,5.1-11.775,16.266-.492,13.67-4.567,27.548-13.879,30.712a15.1,15.1,0,0,1-15.087-3.089,21.326,21.326,0,0,1-2.686-2.746l4.626-3.82c3.238,3.91,7.223,5.328,11.207,3.97,5.611-1.91,11.849-9.82,12.312-22.7.388-10.8,4.716-19.236,12.177-23.743a18.491,18.491,0,0,1,2-1.074,20.892,20.892,0,0,1,.313-4.761c.955-4.82,3.059-8.312,6.3-10.446a13.013,13.013,0,0,1,9.521-1.671l-.731,2.985-.657,2.85h0a7.148,7.148,0,0,0-4.925.925,9.461,9.461,0,0,0-3.567,6.462,12.611,12.611,0,0,0-.224,1.7h0a19.236,19.236,0,0,1,11.521,1.388c7.238,3.477,12.789,10.446,13.67,16.52a10.447,10.447,0,0,1,0,3.492C114.043,154.775,111.058,157.118,106.76,157.461ZM105,151.492a7.089,7.089,0,0,0,1.373,0c2.224-.134,2.418-1.119,2.507-1.582.6-3.1-3.223-10.043-10.327-13.431a13.759,13.759,0,0,0-8.238-.836A26.474,26.474,0,0,0,95.9,145.731a16.267,16.267,0,0,0,8.954,5.716Z" transform="translate(149.032 56.261)"/><path class="e" d="M56.889,146.488a7.087,7.087,0,0,0,1.373,0c2.224-.134,2.418-1.119,2.507-1.582.6-3.1-3.223-10.043-10.327-13.431a13.759,13.759,0,0,0-8.238-.836,13.759,13.759,0,0,1-.7-5.969h0a19.236,19.236,0,0,1,11.521,1.388c7.238,3.477,12.789,10.446,13.67,16.52C65.187,147.428,58.232,146.682,56.889,146.488Z" transform="translate(197.112 61.191)"/></g></svg>