<svg width="94" height="108" viewBox="0 0 94 108" fill="none" xmlns="http://www.w3.org/2000/svg">
<mask id="path-1-inside-1" fill="white">
<path d="M11.5156 8.12368C20.2013 2.73071 30.2396 -0.0856956 40.4631 0.00198591C50.6866 0.0896674 60.6751 3.07783 69.2671 8.61899C77.8591 14.1601 84.7015 22.0266 88.9987 31.3035C93.2958 40.5805 94.8711 50.8867 93.5413 61.0237C92.2115 71.1607 88.0313 80.7119 81.4867 88.5666C74.9422 96.4213 66.3024 102.257 56.5719 105.394C46.8413 108.532 36.4201 108.843 26.5199 106.29C16.6197 103.738 7.6475 98.4279 0.6466 90.9771L7.83169 84.2259C13.5544 90.3164 20.8885 94.6571 28.9811 96.7433C37.0737 98.8295 45.5923 98.5755 53.5462 96.0108C61.5001 93.4461 68.5625 88.6761 73.9121 82.2555C79.2618 75.8349 82.6788 68.0275 83.7658 59.7413C84.8528 51.4551 83.5651 43.0306 80.0526 35.4474C76.54 27.8643 70.9469 21.4341 63.9236 16.9046C56.9003 12.3751 48.7354 9.93255 40.3786 9.86088C32.0217 9.7892 23.8162 12.0914 16.7162 16.4997L11.5156 8.12368Z"/>
</mask>
<path d="M11.5156 8.12368C20.2013 2.73071 30.2396 -0.0856956 40.4631 0.00198591C50.6866 0.0896674 60.6751 3.07783 69.2671 8.61899C77.8591 14.1601 84.7015 22.0266 88.9987 31.3035C93.2958 40.5805 94.8711 50.8867 93.5413 61.0237C92.2115 71.1607 88.0313 80.7119 81.4867 88.5666C74.9422 96.4213 66.3024 102.257 56.5719 105.394C46.8413 108.532 36.4201 108.843 26.5199 106.29C16.6197 103.738 7.6475 98.4279 0.6466 90.9771L7.83169 84.2259C13.5544 90.3164 20.8885 94.6571 28.9811 96.7433C37.0737 98.8295 45.5923 98.5755 53.5462 96.0108C61.5001 93.4461 68.5625 88.6761 73.9121 82.2555C79.2618 75.8349 82.6788 68.0275 83.7658 59.7413C84.8528 51.4551 83.5651 43.0306 80.0526 35.4474C76.54 27.8643 70.9469 21.4341 63.9236 16.9046C56.9003 12.3751 48.7354 9.93255 40.3786 9.86088C32.0217 9.7892 23.8162 12.0914 16.7162 16.4997L11.5156 8.12368Z" stroke="#00BE54" stroke-width="20" mask="url(#path-1-inside-1)"/>
</svg>
