<svg width="77" height="84" viewBox="0 0 77 84" fill="none" xmlns="http://www.w3.org/2000/svg">
<path d="M27.96 81H5.34C4.04765 81 3 79.9523 3 78.66V63.84C3 62.5477 4.04765 61.5 5.34 61.5H27.96C29.2523 61.5 30.3 62.5477 30.3 63.84V78.66C30.3 79.9523 29.2523 81 27.96 81Z" stroke="#02371E" stroke-width="6"/>
<path d="M49.41 22.5H26.79C25.4976 22.5 24.45 21.4524 24.45 20.16V5.34001C24.45 4.04766 25.4976 3.00001 26.79 3.00001H49.41C50.7023 3.00001 51.75 4.04766 51.75 5.34001V20.16C51.75 21.4524 50.7023 22.5 49.41 22.5Z" stroke="#02371E" stroke-width="6"/>
<path d="M70.86 81H48.24C46.9477 81 45.9 79.9523 45.9 78.66V63.84C45.9 62.5477 46.9477 61.5 48.24 61.5H70.86C72.1524 61.5 73.2 62.5477 73.2 63.84V78.66C73.2 79.9523 72.1524 81 70.86 81Z" stroke="#02371E" stroke-width="6"/>
<path d="M16.6501 61.5V47.85C16.6501 45.7813 17.4719 43.7974 18.9347 42.3346C20.3975 40.8718 22.3815 40.05 24.4501 40.05H51.7501C53.8188 40.05 55.8028 40.8718 57.2656 42.3346C58.7284 43.7974 59.5501 45.7813 59.5501 47.85V61.5" stroke="#02371E" stroke-width="6"/>
<path d="M38.1 40.05V22.5" stroke="#02371E" stroke-width="6"/>
</svg>
