<svg width="90" height="83" viewBox="0 0 90 83" fill="none" xmlns="http://www.w3.org/2000/svg">
<path d="M44.556 39.042C52.6299 39.042 58.9096 32.4632 58.9096 24.3893C58.9096 16.3154 52.3309 10.0356 44.257 10.0356C36.183 10.0356 29.9033 16.6144 29.9033 24.3893C29.9033 32.4632 36.4821 39.042 44.556 39.042ZM44.257 16.0163C44.556 16.0163 44.556 16.0163 44.257 16.0163C49.0415 16.0163 52.929 19.9038 52.929 24.6883C52.929 29.4729 49.0415 33.0613 44.257 33.0613C39.4724 33.0613 35.884 29.1738 35.884 24.6883C35.884 19.9038 39.7714 16.0163 44.257 16.0163Z" fill="#02371E"/>
<path d="M88.8131 37.2477C83.1314 32.1642 75.6556 29.4728 67.8807 29.7719H65.4884C64.8904 32.1642 63.9933 34.2574 62.7971 36.0516C64.5913 35.7526 66.0865 35.7526 67.8807 35.7526C73.5624 35.4535 79.244 37.2477 83.7295 40.5371V62.0676H89.7102V38.1448L88.8131 37.2477Z" fill="#02371E"/>
<path d="M61.0029 10.6337C62.4981 7.04534 66.6845 5.25113 70.572 6.7463C74.1604 8.24147 75.9546 12.428 74.4594 16.3154C73.2633 19.0067 70.572 20.8009 67.8807 20.8009C67.2826 20.8009 66.3855 20.8009 65.7874 20.5019C66.0865 21.997 66.0865 23.4922 66.0865 24.6884V26.4826C66.6845 26.4826 67.2826 26.7816 67.8807 26.7816C75.3565 26.7816 81.3372 20.8009 81.3372 13.6241C81.3372 6.14823 75.3565 0.167549 68.1797 0.167549C63.3952 0.167549 59.2087 2.55982 56.8164 6.7463C58.3116 7.6434 59.8067 8.83954 61.0029 10.6337Z" fill="#02371E"/>
<path d="M26.9131 36.3507C25.7169 34.5565 24.8198 32.4632 24.2218 30.071H21.8295C14.0546 29.7719 6.57875 32.4632 0.897102 37.2478L0 38.1449V62.0676H5.98068V40.5372C10.7652 37.2478 16.1478 35.4536 21.8295 35.7526C23.6237 35.7526 25.4179 36.0517 26.9131 36.3507Z" fill="#02371E"/>
<path d="M21.8294 26.4825C22.4275 26.4825 23.0256 26.4825 23.6236 26.1835V24.3893C23.6236 22.8941 23.6236 21.3989 23.9227 20.2028C23.3246 20.5018 22.4275 20.5018 21.8294 20.5018C17.942 20.5018 14.6526 17.2125 14.6526 13.325C14.6526 9.43758 17.942 6.1482 21.8294 6.1482C24.8198 6.1482 27.5111 7.94241 28.7072 10.6337C29.9033 9.13854 31.6975 7.64337 33.1927 6.44724C29.3053 0.167516 21.2313 -1.92572 14.9516 1.96172C8.67191 5.84917 6.57867 13.9231 10.4661 20.2028C12.8584 24.0903 17.0449 26.4825 21.8294 26.4825Z" fill="#02371E"/>
<path d="M69.0769 55.1898L68.4788 54.2927C62.4981 47.714 54.1252 43.8265 45.1541 44.1256C36.1831 43.8265 27.5111 47.714 21.5304 54.2927L20.9324 55.1898V77.9164C20.9324 80.6077 23.0256 83 26.016 83H64.2923C66.9836 83 69.3759 80.6077 69.3759 77.9164V55.1898H69.0769ZM63.0962 77.0193H26.9131V57.2831C31.6976 52.4985 38.2764 50.1062 45.1541 50.1062C51.7329 49.8072 58.3116 52.4985 63.0962 57.2831V77.0193Z" fill="#02371E"/>
</svg>
