<svg width="95" height="95" viewBox="0 0 95 95" fill="none" xmlns="http://www.w3.org/2000/svg">
<path d="M87.5781 13.9976V69.0234C87.5781 71.0696 85.9134 72.7343 83.8672 72.7343H11.1328C9.0866 72.7343 7.42188 71.0696 7.42188 69.0234V13.9976C3.10271 15.5297 0 19.6544 0 24.4922V69.0234C0 75.162 4.99418 80.1562 11.1328 80.1562H43.7891V87.5781H24.4922V95H70.5078V87.5781H51.2109V80.1562H83.8672C90.0058 80.1562 95 75.162 95 69.0234V24.4922C95 19.6544 91.8973 15.5297 87.5781 13.9976Z" fill="#BE8B25"/>
<path d="M47.5225 21.709C49.572 21.709 51.2334 20.0475 51.2334 17.998C51.2334 15.9486 49.572 14.2871 47.5225 14.2871C45.473 14.2871 43.8115 15.9486 43.8115 17.998C43.8115 20.0475 45.473 21.709 47.5225 21.709Z" fill="#BE8B25"/>
<path d="M80.1562 11.1328C80.1562 4.99418 75.1621 0 69.0234 0H26.1621C20.0235 0 15.0293 4.99418 15.0293 11.1328V52.3242H80.1562V11.1328ZM22.4512 11.1328C22.4512 9.0866 24.1159 7.42188 26.1621 7.42188H30.4347C30.0653 8.56188 29.873 9.80411 29.873 11.1328C29.873 13.179 28.2083 14.8438 26.1621 14.8438C24.8481 14.8438 23.6027 15.0864 22.4512 15.5316V11.1328ZM57.6669 44.9023H37.3331C37.3098 44.6574 37.2949 44.4103 37.2949 44.1602C37.2949 39.2493 41.8729 35.2539 47.5 35.2539C53.1271 35.2539 57.7051 39.2493 57.7051 44.1602C57.7051 44.4103 57.69 44.6574 57.6669 44.9023ZM72.7344 44.9023H65.108C65.1199 44.6563 65.127 44.409 65.127 44.1602C65.127 35.1424 57.2351 27.832 47.5 27.832C37.7649 27.832 29.873 35.1424 29.873 44.1602C29.873 44.409 29.8801 44.6563 29.892 44.9023H22.4512V27.832C22.4512 24.6067 24.0118 22.2656 26.1621 22.2656C32.3007 22.2656 37.2949 17.2714 37.2949 11.1328C37.2949 9.83584 37.2949 7.42188 43.2324 7.42188H51.9531C57.8906 7.42188 57.8906 9.83584 57.8906 11.1328C57.8906 17.2714 62.8848 22.2656 69.0234 22.2656C71.1737 22.2656 72.7344 24.6067 72.7344 27.832V44.9023ZM72.7344 15.5316C71.5829 15.0864 70.3375 14.8438 69.0234 14.8438C66.9772 14.8438 65.3125 13.179 65.3125 11.1328C65.3125 9.80411 65.1203 8.56188 64.7508 7.42188H69.0234C71.0696 7.42188 72.7344 9.0866 72.7344 11.1328V15.5316Z" fill="#BE8B25"/>
</svg>
